<?xml version="1.0" standalone="no"?>
<!DOCTYPE svg PUBLIC "-//W3C//DTD SVG 20010904//EN"
 "http://www.w3.org/TR/2001/REC-SVG-20010904/DTD/svg10.dtd">
<svg version="1.0" xmlns="http://www.w3.org/2000/svg"
 width="200.000000pt" height="200.000000pt" viewBox="0 0 200.000000 200.000000"
 preserveAspectRatio="xMidYMid meet">
<metadata>
Created by potrace 1.11, written by Peter Selinger 2001-2013
</metadata>
<g transform="translate(0.000000,200.000000) scale(0.100000,-0.100000)"
fill="#000000" stroke="none">
<path d="M909 1876 c-2 -2 -25 -7 -51 -10 -116 -16 -271 -81 -374 -157 -302
-223 -430 -605 -323 -964 86 -289 324 -516 624 -596 114 -31 317 -31 430 0
300 80 536 305 624 594 30 98 36 148 34 277 -3 232 -88 432 -253 598 -162 163
-361 249 -596 257 -61 3 -113 3 -115 1z m296 -90 c125 -34 255 -108 354 -201
114 -107 214 -287 239 -430 9 -49 8 -270 0 -308 -50 -213 -159 -382 -330 -510
-53 -39 -191 -103 -268 -124 -90 -24 -310 -24 -400 0 -282 76 -508 301 -586
582 -26 94 -27 301 -3 395 81 309 320 540 629 605 83 18 283 13 365 -9z"/>
<path d="M1357 1308 c-10 -8 -37 -81 -67 -183 -28 -93 -62 -208 -75 -254 -31
-103 -31 -107 1 -127 24 -16 26 -16 44 2 10 11 46 112 83 239 94 319 89 293
66 316 -22 22 -29 23 -52 7z"/>
<path d="M686 1211 c-16 -9 -43 -34 -60 -55 -27 -33 -31 -45 -31 -99 0 -80 29
-139 108 -223 55 -60 170 -154 186 -154 19 0 108 69 171 132 85 85 130 169
130 241 0 133 -132 214 -257 158 -41 -19 -42 -19 -79 0 -47 24 -128 24 -168 0z
m127 -82 c12 -7 30 -20 40 -30 25 -27 54 -23 94 11 89 79 183 0 138 -117 -18
-48 -163 -203 -190 -203 -16 0 -84 56 -131 108 -85 94 -104 199 -41 230 29 14
64 14 90 1z"/>
<path d="M474 1148 c-16 -13 -64 -58 -106 -102 -55 -57 -75 -84 -72 -99 2 -11
45 -62 96 -114 92 -92 120 -107 146 -81 25 25 11 54 -58 123 -38 38 -70 73
-70 78 0 4 30 38 66 75 81 82 87 93 68 120 -19 28 -33 28 -70 0z"/>
<path d="M1468 1159 c-35 -20 -21 -54 52 -127 39 -38 70 -74 70 -79 0 -5 -31
-40 -70 -78 -69 -69 -83 -98 -58 -123 26 -26 54 -10 145 81 50 50 94 101 97
112 5 17 -15 42 -94 123 -56 56 -106 102 -113 102 -7 0 -20 -5 -29 -11z"/>
</g>
</svg>
